<svg width="1920" height="1080" xmlns="http://www.w3.org/2000/svg">
  <defs>
    <linearGradient id="grad" x1="0%" y1="0%" x2="100%" y2="100%">
      <stop offset="0%" style="stop-color:#1e40af;stop-opacity:1" />
      <stop offset="100%" style="stop-color:#3b82f6;stop-opacity:1" />
    </linearGradient>
    <pattern id="pattern" width="50" height="50" patternUnits="userSpaceOnUse">
      <circle cx="25" cy="25" r="1" fill="rgba(255,255,255,0.2)" />
    </pattern>
  </defs>
  <rect width="100%" height="100%" fill="url(#grad)" />
  <rect width="100%" height="100%" fill="url(#pattern)" />
  
  <!-- HVAC Icons -->
  <g fill="rgba(255,255,255,0.1)" transform="translate(200,200) scale(0.8)">
    <path d="M50,20 L150,20 L150,120 L50,120 Z" />
    <circle cx="100" cy="70" r="30" />
  </g>
  
  <g fill="rgba(255,255,255,0.1)" transform="translate(1600,800) scale(0.8)">
    <path d="M50,20 L150,20 L150,120 L50,120 Z" />
    <circle cx="100" cy="70" r="30" />
  </g>
  
  <g fill="rgba(255,255,255,0.1)" transform="translate(1200,300) scale(0.6)">
    <path d="M30,30 L170,30 C190,30 190,110 170,110 L30,110 C10,110 10,30 30,30 Z" />
    <rect x="50" y="50" width="100" height="40" rx="5" />
  </g>
  
  <g fill="rgba(255,255,255,0.1)" transform="translate(400,700) scale(0.6)">
    <path d="M30,30 L170,30 C190,30 190,110 170,110 L30,110 C10,110 10,30 30,30 Z" />
    <rect x="50" y="50" width="100" height="40" rx="5" />
  </g>
</svg> 